<svg id="Layer_1" data-name="Layer 1" xmlns="http://www.w3.org/2000/svg" viewBox="0 0 33 48"><defs><style>.cls-1{fill:#30282a;}.cls-1,.cls-2{fill-rule:evenodd;}.cls-2{fill:#fff;}</style></defs><title>icon_iphone</title><path class="cls-1" d="M948,3040h24a4.5,4.5,0,0,1,4.5,4.5v39a4.5,4.5,0,0,1-4.5,4.5H948a4.5,4.5,0,0,1-4.5-4.5v-39A4.5,4.5,0,0,1,948,3040Z" transform="translate(-943.5 -3040)"/><path class="cls-2" d="M949.5,3043h21a3,3,0,0,1,3,3v36a3,3,0,0,1-3,3h-21a3,3,0,0,1-3-3v-36A3,3,0,0,1,949.5,3043Z" transform="translate(-943.5 -3040)"/><path class="cls-1" d="M960,3076a3,3,0,1,1-3,3A3,3,0,0,1,960,3076Z" transform="translate(-943.5 -3040)"/><path class="cls-1" d="M957,3046h6a1.5,1.5,0,0,1,0,3h-6A1.5,1.5,0,0,1,957,3046Z" transform="translate(-943.5 -3040)"/></svg>