<svg id="Layer_1" data-name="Layer 1" xmlns="http://www.w3.org/2000/svg" viewBox="0 0 45 48"><defs><style>.cls-1,.cls-3{fill:#ef3f3f;}.cls-1,.cls-2{fill-rule:evenodd;}.cls-2{fill:#fff;}</style></defs><title>icon_theme</title><path class="cls-1" d="M380,3491h27a4.5,4.5,0,0,1,4.5,4.5v30a4.5,4.5,0,0,1-4.5,4.5H380a4.5,4.5,0,0,1-4.5-4.5v-30A4.5,4.5,0,0,1,380,3491Z" transform="translate(-375.5 -3482)"/><path class="cls-2" d="M381.5,3494h24a3,3,0,0,1,3,3v27a3,3,0,0,1-3,3h-24a3,3,0,0,1-3-3v-27A3,3,0,0,1,381.5,3494Z" transform="translate(-375.5 -3482)"/><path class="cls-3" d="M416,3482H389a4.5,4.5,0,0,0-4.5,4.5v1.5h3a3,3,0,0,1,3-3h24a3,3,0,0,1,3,3v27a3,3,0,0,1-3,3v3H416a4.5,4.5,0,0,0,4.5-4.5v-30A4.5,4.5,0,0,0,416,3482Z" transform="translate(-375.5 -3482)"/><path class="cls-3" d="M416,3482H389a4.5,4.5,0,0,0-4.5,4.5v1.5h3a3,3,0,0,1,3-3h24a3,3,0,0,1,3,3v27a3,3,0,0,1-3,3v3H416a4.5,4.5,0,0,0,4.5-4.5v-30A4.5,4.5,0,0,0,416,3482Z" transform="translate(-375.5 -3482)"/></svg>