<svg id="Layer_1" data-name="Layer 1" xmlns="http://www.w3.org/2000/svg" viewBox="0 0 48 48"><defs><style>.cls-1{fill:#ef3f3f;}.cls-1,.cls-2{fill-rule:evenodd;}.cls-2{fill:#fff;}</style></defs><title>icon_imac</title><path class="cls-1" d="M379.5,3774h39a4.5,4.5,0,0,1,4.5,4.5v30a4.5,4.5,0,0,1-4.5,4.5h-39a4.5,4.5,0,0,1-4.5-4.5v-30A4.5,4.5,0,0,1,379.5,3774Z" transform="translate(-375 -3774)"/><path class="cls-2" d="M381,3777h36a3,3,0,0,1,3,3v27a3,3,0,0,1-3,3H381a3,3,0,0,1-3-3v-27A3,3,0,0,1,381,3777Z" transform="translate(-375 -3774)"/><path class="cls-1" d="M378,3802.5h42v3H378v-3Z" transform="translate(-375 -3774)"/><path class="cls-1" d="M390,3819h18a1.5,1.5,0,0,1,0,3H390A1.5,1.5,0,0,1,390,3819Z" transform="translate(-375 -3774)"/><path class="cls-1" d="M391.5,3813h15v6h-15v-6Z" transform="translate(-375 -3774)"/><path class="cls-1" d="M394.5,3813h9v6h-9v-6Z" transform="translate(-375 -3774)"/></svg>