<svg id="Layer_1" data-name="Layer 1" xmlns="http://www.w3.org/2000/svg" viewBox="0 0 48 47.64"><defs><style>.cls-1{fill:#30282a;}</style></defs><title>icon_openletter</title><path class="cls-1" d="M1364.5,3052.64h-12v1.49h12v-1.49Zm4.5,3h-16.5v1.49H1369v-1.49Zm13.46,0.69,0,0-6-4.95v-6.13h-7.43l-5.92-4.89a5,5,0,0,0-6.12.06l-5.9,4.82H1345v5l-7.42,6.07c-1,.61-1.58,1.75-1.58,3.82v22.36a4.49,4.49,0,0,0,4.5,4.47h39a4.49,4.49,0,0,0,4.5-4.47v-22.36C1384,3058.05,1383.4,3056.93,1382.46,3056.31Zm-6-1.05,2.87,2.39-1.1.95H1378l0.24,0-1.74,1.5v-4.86ZM1359,3042.58a1.85,1.85,0,0,1,1.16-.4,2,2,0,0,1,1.14.36l3.17,2.65h-8.63Zm-11,5.59h25.5v14.54l-12.25,10.55a1.94,1.94,0,0,1-1.14.37,1.84,1.84,0,0,1-1.16-.41l-11-9.92v-15.12Zm-3,5.92v6.48l-3.75-3.39Zm-5.86,27.73a2.93,2.93,0,0,1-.14-0.86v-19.38a2.94,2.94,0,0,1,.67-1.86l12.1,11Zm38.86,2.12h-36a3,3,0,0,1-.63-0.07l12.64-11.16,0,0,3,2.75a5,5,0,0,0,6.12.06l3-2.61,12.44,11A3,3,0,0,1,1378,3083.94Zm3-3a2.93,2.93,0,0,1-.14.86l-12.37-10.92,12.24-10.54a3,3,0,0,1,.27,1.22V3081Zm-13.5-22.36h-15v1.49h15v-1.49Z" transform="translate(-1336 -3039.28)"/></svg>