<svg id="Layer_1" data-name="Layer 1" xmlns="http://www.w3.org/2000/svg" viewBox="0 0 48 48"><defs><style>.cls-1{fill:#30282a;}.cls-1,.cls-2{fill-rule:evenodd;}.cls-2{fill:#fff;}</style></defs><title>icon_archive</title><path class="cls-1" d="M545,3040h28.5c1.66,0,2.78,1.86,3,3l7.5,25.51v15a4.5,4.5,0,0,1-4.5,4.5h-39a4.5,4.5,0,0,1-4.5-4.5v-15l6-25.51C542.28,3041.9,543.34,3040,545,3040Z" transform="translate(-536 -3040)"/><path class="cls-2" d="M546.5,3043H572a1.5,1.5,0,0,1,1.5,1.5l7.5,24V3082a3,3,0,0,1-3,3H542a3,3,0,0,1-3-3v-13.47l6-24A1.5,1.5,0,0,1,546.5,3043Z" transform="translate(-536 -3040)"/><path class="cls-1" d="M537.5,3067h45v3h-45v-3Z" transform="translate(-536 -3040)"/><path class="cls-1" d="M549.5,3067h21v3h-21v-3Z" transform="translate(-536 -3040)"/><path class="cls-1" d="M570.5,3067v7.5a3,3,0,0,1-3,3h-15a3,3,0,0,1-3-3V3067h21Z" transform="translate(-536 -3040)"/><path class="cls-1" d="M551,3067h18a1.41,1.41,0,0,0-1.5,1.5v4.5a1.5,1.5,0,0,1-1.5,1.5H554a1.5,1.5,0,0,1-1.5-1.5v-4.5A1.47,1.47,0,0,0,551,3067Z" transform="translate(-536 -3040)"/><path class="cls-1" d="M548,3059.5h24a1.5,1.5,0,0,1,0,3H548A1.5,1.5,0,0,1,548,3059.5Z" transform="translate(-536 -3040)"/><path class="cls-1" d="M549.5,3053.5h21a1.5,1.5,0,1,1,0,3h-21A1.5,1.5,0,1,1,549.5,3053.5Z" transform="translate(-536 -3040)"/><path class="cls-1" d="M551,3047.5h18a1.5,1.5,0,0,1,0,3H551A1.5,1.5,0,0,1,551,3047.5Z" transform="translate(-536 -3040)"/></svg>