<svg id="Layer_1" data-name="Layer 1" xmlns="http://www.w3.org/2000/svg" viewBox="0 0 47.97 41.99"><defs><style>.cls-1{fill:#ef3f3f;}.cls-1,.cls-2{fill-rule:evenodd;}.cls-2{fill:#fff;}</style></defs><title>icon_heart</title><path class="cls-1" d="M818.79,3785.18c-7.11-7.1-14.15-4-19.79,1.07-5.64-5.07-12.63-8.23-19.79-1.07a14.13,14.13,0,0,0,0,20.1C798.94,3823,798.94,3823,798.94,3823s0,0.06,19.85-17.71A14.13,14.13,0,0,0,818.79,3785.18Z" transform="translate(-775.02 -3781)"/><path class="cls-2" d="M799,3819.2c-2.26-2-7.16-7-17.73-16.42a10.74,10.74,0,0,1-3.2-7.66,11,11,0,0,1,3.32-7.88c2.22-2.19,4.41-3.26,6.68-3.26,2.65,0,5.67,1.49,9,4.42l2,1.78,2-1.78c3.29-2.92,6.32-4.4,9-4.4,2.28,0,4.46,1.06,6.67,3.24a11,11,0,0,1,3.32,7.88,10.81,10.81,0,0,1-3.31,7.76C806.09,3812.23,801.2,3817.23,799,3819.2Z" transform="translate(-775.02 -3781)"/></svg>