<svg id="Layer_1" data-name="Layer 1" xmlns="http://www.w3.org/2000/svg" viewBox="0 0 48 48"><defs><style>.cls-1{fill:#ef3f3f;}.cls-1,.cls-2{fill-rule:evenodd;}.cls-2{fill:#fff;}</style></defs><title>icon_browser</title><path class="cls-1" d="M779.5,3483h39a4.5,4.5,0,0,1,4.5,4.5v39a4.5,4.5,0,0,1-4.5,4.5h-39a4.5,4.5,0,0,1-4.5-4.5v-39A4.5,4.5,0,0,1,779.5,3483Z" transform="translate(-775 -3483)"/><path class="cls-2" d="M781,3486h36a3,3,0,0,1,3,3v36a3,3,0,0,1-3,3H781a3,3,0,0,1-3-3v-36A3,3,0,0,1,781,3486Z" transform="translate(-775 -3483)"/><path class="cls-1" d="M778,3495h43.5v3H778v-3Z" transform="translate(-775 -3483)"/><path class="cls-1" d="M782.5,3489a1.5,1.5,0,1,1-1.5,1.5A1.5,1.5,0,0,1,782.5,3489Z" transform="translate(-775 -3483)"/><path class="cls-1" d="M788.5,3489a1.5,1.5,0,1,1-1.5,1.5A1.5,1.5,0,0,1,788.5,3489Z" transform="translate(-775 -3483)"/><path class="cls-1" d="M794.5,3489a1.5,1.5,0,1,1-1.5,1.5A1.5,1.5,0,0,1,794.5,3489Z" transform="translate(-775 -3483)"/></svg>