<svg id="Layer_1" data-name="Layer 1" xmlns="http://www.w3.org/2000/svg" viewBox="0 0 48 48"><defs><style>.cls-1{fill:#ef3f3f;}</style></defs><title>icon_lifesaver</title><path class="cls-1" d="M1199,3482a24,24,0,1,0,24,24A24,24,0,0,0,1199,3482Zm17.34,12.17-6.53,3.77a13.56,13.56,0,0,0-2.75-2.75l3.77-6.53A21.13,21.13,0,0,1,1216.34,3494.17ZM1209.5,3506a10.5,10.5,0,1,1-10.5-10.5A10.5,10.5,0,0,1,1209.5,3506Zm-10.5-21a20.88,20.88,0,0,1,9.23,2.16l-3.76,6.51a13.37,13.37,0,0,0-9.92-.41l-3.78-6.55A20.78,20.78,0,0,1,1199,3485Zm-10.84,3.06,3.74,6.47a13.56,13.56,0,0,0-3.11,2.65l-6.56-3.79A21.18,21.18,0,0,1,1188.16,3488.06ZM1178,3506a20.9,20.9,0,0,1,2.61-10.13l6.5,3.75a13.5,13.5,0,0,0-.5,11.72l-6.52,3.77A20.9,20.9,0,0,1,1178,3506Zm3.57,11.7,6.52-3.77a13.54,13.54,0,0,0,3,3l-3.77,6.53A21.12,21.12,0,0,1,1181.57,3517.7ZM1199,3527a20.88,20.88,0,0,1-9.09-2.09l3.76-6.51a13.49,13.49,0,0,0,11.72-.5l3.74,6.48A20.81,20.81,0,0,1,1199,3527Zm12.6-4.22-3.79-6.56a13.55,13.55,0,0,0,2.65-3.11l6.49,3.75A21.19,21.19,0,0,1,1211.6,3522.78Zm0.14-12.34a13.37,13.37,0,0,0-.4-9.92l6.52-3.76a21,21,0,0,1,.47,17.48Z" transform="translate(-1175 -3482)"/></svg>