<svg id="Layer_1" data-name="Layer 1" xmlns="http://www.w3.org/2000/svg" viewBox="0 0 71.02 73.8"><defs><style>.cls-1,.cls-2{fill:#fff;}.cls-1{fill-rule:evenodd;}</style></defs><title>logo_direct</title><path class="cls-1" d="M1093.7,5793.75a12,12,0,1,0,12,12A12,12,0,0,0,1093.7,5793.75Zm0,19a7,7,0,1,1,7-7A7,7,0,0,1,1093.7,5812.75Z" transform="translate(-1034.68 -5793.75)"/><path class="cls-2" d="M1074.6,5820.2q-5.57-3.19-18.42-3.19h-21.5v50.54h21.57q13.32,0,18.61-3t5.3-11.6v-20.56Q1080.16,5823.39,1074.6,5820.2Zm-9.23,37.65q-2.65,1.05-9.66,1.05h-8.88v-33.26h9.27q6,0,9,1.4a5.11,5.11,0,0,1,3,5.06v20.79Q1068,5856.8,1065.37,5857.85Z" transform="translate(-1034.68 -5793.75)"/></svg>