<svg id="Layer_1" data-name="Layer 1" xmlns="http://www.w3.org/2000/svg" viewBox="0 0 130.25 87.2"><defs><style>.cls-1,.cls-2{fill:#fff;}.cls-1{fill-rule:evenodd;}</style></defs><title>logo_university</title><path class="cls-1" d="M833.06,5792.82v54h54v-54h-54Zm54,13.8h-2.32a1.08,1.08,0,0,0-1.19,1.19v17.5c0,8.48-6,14.31-15,14.31s-15.12-5.83-15.12-14.31v-17.5a1.08,1.08,0,0,0-1.19-1.19h-2.32v-6h6.91c2.59,0,3.67,1.13,3.67,3.67v20.79c0,5,3.19,7.94,8,7.94s8-2.92,8-8v-20.74c0-2.54,1.08-3.67,3.67-3.67h6.91v6Z" transform="translate(-794.94 -5792.82)"/><path class="cls-2" d="M803.77,5879.59a5,5,0,0,0,1.92-1.22,5,5,0,0,0,1.12-1.89,7.62,7.62,0,0,0,.37-2.42v-9.31h-3.37v9a3.53,3.53,0,0,1-.77,2.57,2.72,2.72,0,0,1-2,.76,3.43,3.43,0,0,1-1.11-.17,2,2,0,0,1-.86-0.57,2.84,2.84,0,0,1-.56-1,5.07,5.07,0,0,1-.21-1.54v-9h-3.37v9.31a7.72,7.72,0,0,0,.36,2.41,4.91,4.91,0,0,0,1.1,1.88,5.06,5.06,0,0,0,1.89,1.23,7.55,7.55,0,0,0,2.72.44A8,8,0,0,0,803.77,5879.59Z" transform="translate(-794.94 -5792.82)"/><path class="cls-2" d="M823.54,5879.72v-15H820.2v8.83q-0.78-1.17-1.66-2.43t-1.78-2.44q-0.9-1.18-1.76-2.21t-1.58-1.75h-2.74v15H814v-9.81a51.66,51.66,0,0,1,3.59,4.73q1.69,2.51,3.13,5.08h2.83Z" transform="translate(-794.94 -5792.82)"/><path class="cls-2" d="M827.09,5879.72h3.37v-15h-3.37v15Z" transform="translate(-794.94 -5792.82)"/><path class="cls-2" d="M842.19,5879.72q0.89-1.88,1.75-3.91t1.64-4q0.78-2,1.43-3.8t1.16-3.24h-3.59q-0.42,1.31-.94,2.81t-1,3q-0.53,1.49-1,2.85t-0.92,2.35q-0.45-1-.94-2.36l-1-2.85q-0.53-1.49-1-3t-0.93-2.8H833q0.48,1.42,1.13,3.24t1.44,3.8q0.78,2,1.65,4t1.76,3.91h3.21Z" transform="translate(-794.94 -5792.82)"/><path class="cls-2" d="M860.62,5879.72v-2.83h-7.24v-3.61h6v-2.76h-6v-2.94h6.74v-2.83H850v15h10.61Z" transform="translate(-794.94 -5792.82)"/><path class="cls-2" d="M866,5864.66a19.18,19.18,0,0,0-2.28.3v14.75h3.37v-5.46h1.66q0.43,0.52.87,1.16t0.88,1.35q0.44,0.71.87,1.47l0.83,1.49H876q-0.39-.82-0.84-1.67t-0.94-1.64q-0.49-.79-1-1.51t-1-1.29a4.77,4.77,0,0,0,2.08-1.54,4.21,4.21,0,0,0,.72-2.56,4.17,4.17,0,0,0-1.79-3.73,9.28,9.28,0,0,0-5.16-1.2Q867.19,5864.58,866,5864.66Zm4.75,3.25a1.65,1.65,0,0,1,.83,1.57,1.72,1.72,0,0,1-.82,1.62,5.73,5.73,0,0,1-2.72.48h-1v-4.06l0.55,0,0.66,0A5.15,5.15,0,0,1,870.76,5867.91Z" transform="translate(-794.94 -5792.82)"/><path class="cls-2" d="M880,5876.85a8.45,8.45,0,0,1-1.65-.66l-1,2.68a7.93,7.93,0,0,0,1.8.73,11.52,11.52,0,0,0,1.41.29,12.32,12.32,0,0,0,1.79.12,7.09,7.09,0,0,0,4.43-1.15,3.9,3.9,0,0,0,1.47-3.25,5.3,5.3,0,0,0-.28-1.84,3.57,3.57,0,0,0-.85-1.32,5.45,5.45,0,0,0-1.44-1q-0.86-.42-2-0.85l-1-.38a4.82,4.82,0,0,1-.82-0.41,1.89,1.89,0,0,1-.55-0.51,1.18,1.18,0,0,1-.19-0.69,1.13,1.13,0,0,1,.53-1,3.39,3.39,0,0,1,1.74-.33,6,6,0,0,1,1.85.25,9.16,9.16,0,0,1,1.39.57l1-2.66a9.15,9.15,0,0,0-4.43-1,7.78,7.78,0,0,0-2.29.31,5.05,5.05,0,0,0-1.73.9,4,4,0,0,0-1.1,1.41,4.36,4.36,0,0,0-.39,1.87,3.85,3.85,0,0,0,.37,1.76,4,4,0,0,0,1,1.23,5.39,5.39,0,0,0,1.32.84q0.73,0.34,1.47.59a9.89,9.89,0,0,1,2.38,1,1.45,1.45,0,0,1,.69,1.22,1.73,1.73,0,0,1-.11.63,1.09,1.09,0,0,1-.39.49,2.17,2.17,0,0,1-.75.32,4.86,4.86,0,0,1-1.18.12A8.55,8.55,0,0,1,880,5876.85Z" transform="translate(-794.94 -5792.82)"/><path class="cls-2" d="M891.17,5879.72h3.37v-15h-3.37v15Z" transform="translate(-794.94 -5792.82)"/><path class="cls-2" d="M897.29,5864.75v2.87h4.51v12.1h3.37v-12.1h4.51v-2.87h-12.4Z" transform="translate(-794.94 -5792.82)"/><path class="cls-2" d="M916.53,5867.83q-0.8-1.53-1.49-3.08h-3.91q1.23,2.42,2.56,4.71t2.8,4.58v5.68h3.37V5874q1.47-2.29,2.79-4.56t2.55-4.69h-3.72q-0.69,1.55-1.51,3.08t-1.73,3.06Q917.32,5869.36,916.53,5867.83Z" transform="translate(-794.94 -5792.82)"/></svg>