<svg id="Layer_1" data-name="Layer 1" xmlns="http://www.w3.org/2000/svg" viewBox="0 0 80 80"><defs><style>.cls-1{fill:#fff;fill-rule:evenodd;}</style></defs><title>logo_fr</title><path class="cls-1" d="M668.39,5842.66a4.21,4.21,0,0,1-3-1.14,4,4,0,0,0-1.51-1.14q-1,0-3.25,3.21a31.84,31.84,0,0,0-3.46,6.28,69.44,69.44,0,0,0-2.72,9.58L652,5870h-8.81l7.15-32.46h-7.16l0.6-2.37h5.81a67.29,67.29,0,0,0,9.9-.6l-2.7,11.53,0.19,0.19q6.37-12.28,11.44-12.28a4.52,4.52,0,0,1,3.23,1.26,4.12,4.12,0,0,1,1.33,3.12,4,4,0,0,1-1.28,3.07A4.58,4.58,0,0,1,668.39,5842.66Zm-20.51-22.74a4,4,0,0,1-2.93-1.23,3.89,3.89,0,0,1-1.26-2.86,4.13,4.13,0,0,1,1.35-3,8.64,8.64,0,0,0,1.35-1.49q0-1-2.79-1-6.28,0-9,6.79t-3.88,18h6.74l-0.47,2.37H630.5l-3.39,20.18q-1.2,7.1-2.43,12.28H620v-24.65l1-5.43q0-.19.23-1.23a10.17,10.17,0,0,1,.23-1.14H620v-2.37h2q2.79-13.62,8.67-20.3t12.3-6.67a10,10,0,0,1,6.37,2.09,6.27,6.27,0,0,1,2.65,5.07,4.7,4.7,0,0,1-1.19,3.21A3.72,3.72,0,0,1,647.89,5819.92Z" transform="translate(-606.48 -5799.1)"/><path class="cls-1" d="M606.48,5799.1v80h80v-80h-80Zm69.5,69.5H617v-59h59v59Z" transform="translate(-606.48 -5799.1)"/></svg>