<svg id="Layer_1" data-name="Layer 1" xmlns="http://www.w3.org/2000/svg" viewBox="0 0 46.99 86.47"><defs><style>.cls-1,.cls-2{fill:#fff;}.cls-2{fill-rule:evenodd;}</style></defs><title>logo_sage</title><path class="cls-1" d="M1247.53,5825.52a1.93,1.93,0,0,1-1.31.31h-2.33a2.06,2.06,0,0,1-1.33-.31,1.81,1.81,0,0,1-.33-1.31v-4.33h-5.05V5825q0,4.89,5.17,4.89h5.39q5.22,0,5.22-4.89v-10q0-4.89-5.11-4.89h-4.05a2.06,2.06,0,0,1-1.33-.31,1.81,1.81,0,0,1-.33-1.31v-7.72a1.81,1.81,0,0,1,.33-1.31,2.06,2.06,0,0,1,1.33-.31h2.33a2.06,2.06,0,0,1,1.33.31,1.81,1.81,0,0,1,.33,1.31v4.33h5.05V5800q0-4.89-5.17-4.89h-5.44q-5.17,0-5.17,4.89v9.17q0,4.94,5.05,4.94h4.11a1.27,1.27,0,0,1,1.61,1.61v8.5A1.94,1.94,0,0,1,1247.53,5825.52Z" transform="translate(-1237 -5795.11)"/><path class="cls-1" d="M1273.72,5799.44l3.17,18.33h-6.05Zm10.28,30.44-6.61-34.77h-7.28l-6.17,34.77h5l1.28-8.05h7.33l1.39,8.05H1284Z" transform="translate(-1237 -5795.11)"/><path class="cls-1" d="M1253.28,5841.65q0-4.89-5.17-4.89h-5.94q-5.17,0-5.17,4.89v25q0,4.94,5.17,4.94h5.94q5.17,0,5.17-4.94v-13h-7.83v3.89h2.78v8.5a1.81,1.81,0,0,1-.33,1.31,2.06,2.06,0,0,1-1.33.31h-2.83a2.06,2.06,0,0,1-1.33-.31,1.81,1.81,0,0,1-.33-1.31v-23.72a1.82,1.82,0,0,1,.33-1.31,2.06,2.06,0,0,1,1.33-.31h2.83a2.06,2.06,0,0,1,1.33.31,1.82,1.82,0,0,1,.33,1.31v4.61h5.05v-5.28Z" transform="translate(-1237 -5795.11)"/><path class="cls-1" d="M1271.78,5855.6h8v-4.05h-8v-10.72h9.67v-4.05h-14.72v34.77h15.11v-4.05h-10.05V5855.6Z" transform="translate(-1237 -5795.11)"/><path class="cls-2" d="M1237.31,5877.13h44.44v4.44h-44.44v-4.44Z" transform="translate(-1237 -5795.11)"/></svg>