<svg id="Layer_1" data-name="Layer 1" xmlns="http://www.w3.org/2000/svg" viewBox="0 0 123.81 56.58"><defs><style>.cls-1{fill:#fff;}</style></defs><title>logo_connecto</title><path class="cls-1" d="M465.83,5812.08v13.6h-13.6v-13.6h13.6m4-4h-21.6v21.6h21.6v-21.6h0Z" transform="translate(-397.12 -5808.08)"/><path class="cls-1" d="M411,5850.51a6.89,6.89,0,0,0-5.55-2.51,8,8,0,0,0-8.37,8.4c0,4.95,3.49,8.26,8.37,8.26a7,7,0,0,0,5.91-2.82l-2.33-1.66a4.46,4.46,0,0,1-3.56,1.93c-3.27,0-5.44-2.51-5.44-5.89a5.38,5.38,0,0,1,5.44-5.66,4.32,4.32,0,0,1,3.34,1.57Z" transform="translate(-397.12 -5808.08)"/><path class="cls-1" d="M412.68,5856.4c0,4.95,3.49,8.26,8.37,8.26s8.44-3.4,8.44-8.35a7.87,7.87,0,0,0-8.44-8.31A8,8,0,0,0,412.68,5856.4Zm3-.18a5.46,5.46,0,1,1,10.9,0c0,3.38-2.17,5.89-5.46,5.89S415.64,5859.6,415.64,5856.22Z" transform="translate(-397.12 -5808.08)"/><path class="cls-1" d="M432.41,5864.26h2.82V5852.1h0l7.84,12.16h3.58V5848.4h-2.82v11.78h0l-7.68-11.78h-3.74v15.85Z" transform="translate(-397.12 -5808.08)"/><path class="cls-1" d="M443.92,5864.26h2.82V5852.1h0l7.84,12.16h3.58V5848.4h-2.82v11.78h0l-7.68-11.78h-3.74v15.85Z" transform="translate(-397.12 -5808.08)"/><path class="cls-1" d="M461.5,5864.26h13.7l-0.93-2.55h-9.95v-4.3h7.28v-2.55h-7.28V5851h9.55l0.93-2.55H461.5v15.85Z" transform="translate(-397.12 -5808.08)"/><path class="cls-1" d="M489.41,5850.51a6.89,6.89,0,0,0-5.55-2.51,8,8,0,0,0-8.37,8.4c0,4.95,3.49,8.26,8.37,8.26a7,7,0,0,0,5.91-2.82l-2.33-1.66a4.45,4.45,0,0,1-3.56,1.93c-3.27,0-5.44-2.51-5.44-5.89a5.38,5.38,0,0,1,5.44-5.66,4.32,4.32,0,0,1,3.34,1.57Z" transform="translate(-397.12 -5808.08)"/><path class="cls-1" d="M496,5864.26h2.82V5851h4.86v-2.55H491.18V5851H496v13.3Z" transform="translate(-397.12 -5808.08)"/><path class="cls-1" d="M504.12,5856.4c0,4.95,3.49,8.26,8.37,8.26s8.44-3.4,8.44-8.35a7.87,7.87,0,0,0-8.44-8.31A8,8,0,0,0,504.12,5856.4Zm3-.18a5.46,5.46,0,1,1,10.9,0c0,3.38-2.17,5.89-5.46,5.89S507.07,5859.6,507.07,5856.22Z" transform="translate(-397.12 -5808.08)"/></svg>