<svg id="Layer_1" data-name="Layer 1" xmlns="http://www.w3.org/2000/svg" viewBox="0 0 70 70"><defs><style>.cls-1{fill:#ef3f3f;}.cls-2,.cls-3{fill:#fff;}.cls-3{fill-rule:evenodd;}</style></defs><title>SAGE_logo</title><rect class="cls-1" width="70" height="70"/><path class="cls-2" d="M298.9,496.86a1,1,0,0,1-.7.16H297a1.1,1.1,0,0,1-.71-0.16,1,1,0,0,1-.18-0.7v-2.32h-2.7v2.73q0,2.61,2.76,2.61H299q2.79,0,2.79-2.61v-5.35q0-2.61-2.73-2.61H296.9a1.1,1.1,0,0,1-.71-0.16,1,1,0,0,1-.18-0.7v-4.13a1,1,0,0,1,.18-0.7,1.11,1.11,0,0,1,.71-0.16h1.25a1.11,1.11,0,0,1,.71.16,1,1,0,0,1,.18.7v2.32h2.7v-2.73q0-2.61-2.76-2.61h-2.91q-2.76,0-2.76,2.61v4.9q0,2.64,2.7,2.64h2.2a0.68,0.68,0,0,1,.86.86v4.55A1,1,0,0,1,298.9,496.86Z" transform="translate(-271 -469)"/><path class="cls-2" d="M312.91,482.91l1.69,9.8h-3.24Zm5.5,16.28-3.54-18.6H311l-3.3,18.6h2.67l0.68-4.31H315l0.74,4.31h2.7Z" transform="translate(-271 -469)"/><path class="cls-2" d="M302,505.49q0-2.61-2.76-2.61H296q-2.76,0-2.76,2.61v13.37q0,2.64,2.76,2.64h3.18q2.76,0,2.76-2.64v-7h-4.19V514h1.49v4.55a1,1,0,0,1-.18.7,1.1,1.1,0,0,1-.71.16h-1.52a1.1,1.1,0,0,1-.71-0.16,1,1,0,0,1-.18-0.7V505.85a1,1,0,0,1,.18-0.7,1.11,1.11,0,0,1,.71-0.16h1.52a1.1,1.1,0,0,1,.71.16,1,1,0,0,1,.18.7v2.47H302v-2.82Z" transform="translate(-271 -469)"/><path class="cls-2" d="M311.87,512.95h4.28v-2.17h-4.28V505H317v-2.17h-7.87v18.6h8.08v-2.17h-5.38v-6.36Z" transform="translate(-271 -469)"/><path class="cls-3" d="M293.44,524.46H317.2v2.38H293.44v-2.38Z" transform="translate(-271 -469)"/></svg>