<svg id="Layer_1" data-name="Layer 1" xmlns="http://www.w3.org/2000/svg" viewBox="0 0 370.43 681.59"><defs><style>.cls-1,.cls-2{fill:#30282a;}.cls-2{fill-rule:evenodd;}</style></defs><title>SAGE_placeholder</title><path class="cls-1" d="M1258.65,2419.9q-2.41,2.41-10.29,2.41H1230q-7.88,0-10.51-2.41t-2.63-10.29v-34.15H1177v40.28q0,38.54,40.72,38.53h42.47q41.15,0,41.16-38.53v-78.81q0-38.52-40.28-38.53h-32q-7.88,0-10.51-2.41T1216,2285.7v-60.86q0-7.88,2.63-10.29t10.51-2.41h18.39q7.88,0,10.51,2.41t2.63,10.29V2259h39.84V2218.7q0-38.52-40.72-38.53h-42.91q-40.72,0-40.72,38.53V2291q0,39,39.84,39h32.4q7.88,0,10.29,2.41t2.41,10.29v67Q1261.06,2417.49,1258.65,2419.9Z" transform="translate(-1175.68 -2180.17)"/><path class="cls-1" d="M1465.1,2214.33l25,144.49h-47.73Zm81,239.95-52.1-274.1h-57.36l-48.6,274.1h39.41l10.07-63.49h57.8l10.95,63.49h39.84Z" transform="translate(-1175.68 -2180.17)"/><path class="cls-1" d="M1304,2547.1q0-38.52-40.72-38.53H1216.4q-40.72,0-40.72,38.53v197q0,39,40.72,39h46.85q40.72,0,40.72-39V2641.67h-61.74v30.65h21.89v67q0,7.88-2.63,10.29T1251,2752h-22.33q-7.88,0-10.51-2.41t-2.63-10.29v-187q0-7.88,2.63-10.29t10.51-2.41H1251q7.88,0,10.51,2.41t2.63,10.29v36.34H1304v-41.6Z" transform="translate(-1175.68 -2180.17)"/><path class="cls-1" d="M1449.77,2657h63.05v-32h-63.05v-84.51H1526v-32h-116v274.1H1529v-32h-79.25V2657Z" transform="translate(-1175.68 -2180.17)"/><path class="cls-2" d="M1178.08,2826.73h350.28v35H1178.08v-35Z" transform="translate(-1175.68 -2180.17)"/></svg>